<?xml version="1.0" encoding="UTF-8"?>
<svg width="64px" height="64px" viewBox="0 0 64 64" version="1.1" xmlns="http://www.w3.org/2000/svg" xmlns:xlink="http://www.w3.org/1999/xlink">
    <title>power_boost</title>
    <g id="power_boost" stroke="none" fill="none" fill-rule="nonzero">
        <path d="M48.0400629,8.5600943 L55.7976985,20.1965478 C55.9247321,20.3870981 55.9925202,20.6109871 55.9925202,20.84 C55.9925202,21.4806503 55.4731705,22 54.8325202,22 L49,22 L49,54 C49,55.1045695 48.1045695,56 47,56 C45.8954305,56 45,55.1045695 45,54 L45,22 L39.1674798,22 C38.9842694,22 38.8043384,21.9566156 38.6421327,21.8742207 L38.5240276,21.8051783 C37.9909743,21.4498095 37.8469326,20.7296011 38.2023015,20.1965478 L45.9599371,8.5600943 C46.0514807,8.42277894 46.1693094,8.30495025 46.3066248,8.21340668 C46.8810356,7.83046611 47.6571223,7.98568344 48.0400629,8.5600943 Z M32.6956249,8.12877038 C33.7379981,8.51740183 34.2632748,9.66507682 33.8688633,10.6921742 L27.751,27 L37.9819932,27 C38.4061866,27 38.8179752,27.1316625 39.1599406,27.3739156 L39.302055,27.4844478 C40.145019,28.2028137 40.2373646,29.4585072 39.5083146,30.2891178 L17.5448415,55.3122218 C16.9909856,55.9432328 16.0962612,56.1664712 15.3043751,55.8712296 C14.2620019,55.4825982 13.7367252,54.3349232 14.1311367,53.3078258 L20.249,37 L10.0180068,37 C9.59381344,37 9.18202484,36.8683375 8.84005937,36.6260844 L8.69794503,36.5155522 C7.85498102,35.7971863 7.76263543,34.5414928 8.49168539,33.7108822 L30.4551585,8.68777822 C31.0090144,8.05676716 31.9037388,7.83352884 32.6956249,8.12877038 Z" id="Shape" fill="#000000"></path>
    </g>
</svg>