<?xml version="1.0" encoding="UTF-8"?>
<svg xmlns="http://www.w3.org/2000/svg" width="96" height="96" viewBox="0 0 96 96">
  <path d="M 18.375 79.000 L 17.625 79.250 L 16.125 81.000 L 16.000 87.500 L 16.250 88.250 L 17.375 89.500 L 18.250 89.875 L 19.625 89.875 L 20.625 89.375 L 21.750 88.000 L 21.875 81.500 L 21.625 80.625 L 20.250 79.250 Z" fill="#000000" fill-rule="evenodd"/>
  <path d="M 36.375 73.000 L 35.625 73.250 L 34.250 74.625 L 34.000 75.500 L 34.000 87.500 L 34.250 88.250 L 35.375 89.500 L 36.250 89.875 L 37.625 89.875 L 38.750 89.250 L 39.625 88.250 L 39.875 87.500 L 39.875 75.500 L 39.625 74.625 L 38.250 73.250 Z" fill="#000000" fill-rule="evenodd"/>
  <path d="M 54.375 65.000 L 53.625 65.250 L 52.250 66.625 L 52.000 67.500 L 52.000 87.500 L 52.250 88.250 L 53.375 89.500 L 54.250 89.875 L 55.625 89.875 L 56.750 89.250 L 57.625 88.250 L 57.875 87.500 L 57.875 67.500 L 57.500 66.500 L 56.250 65.250 Z" fill="#000000" fill-rule="evenodd"/>
  <path d="M 72.375 49.000 L 71.625 49.250 L 70.250 50.625 L 70.000 51.500 L 70.000 87.500 L 70.250 88.250 L 71.375 89.500 L 72.250 89.875 L 73.625 89.875 L 74.750 89.250 L 75.625 88.250 L 75.875 87.500 L 75.875 51.500 L 75.500 50.500 L 74.250 49.250 Z" fill="#000000" fill-rule="evenodd"/>
  <path d="M 57.625 39.625 L 56.250 38.250 L 55.375 38.000 L 38.375 38.000 L 37.625 38.250 L 36.375 39.375 L 36.000 40.250 L 36.125 42.000 L 37.625 43.625 L 38.375 43.875 L 46.625 43.875 L 47.125 44.250 L 47.000 44.875 L 38.500 52.750 L 32.750 56.875 L 26.750 59.875 L 17.500 62.375 L 16.125 64.000 L 16.000 65.375 L 16.375 66.375 L 18.000 67.750 L 20.375 67.750 L 27.750 65.750 L 29.000 65.000 L 32.375 63.750 L 37.500 60.750 L 41.625 57.750 L 48.375 51.750 L 51.125 48.750 L 51.625 48.750 L 52.000 49.250 L 52.125 58.000 L 53.875 59.750 L 55.625 59.875 L 56.250 59.625 L 57.625 58.250 L 57.875 57.500 L 57.875 40.500 Z" fill="#000000" fill-rule="evenodd"/>
  <path d="M 72.250 2.000 L 71.625 2.250 L 70.250 3.625 L 70.000 6.000 L 69.375 6.875 L 67.625 7.125 L 65.250 8.125 L 63.125 9.500 L 60.875 11.500 L 58.375 14.875 L 57.125 17.625 L 56.875 19.375 L 56.000 20.000 L 54.375 20.000 L 53.250 20.500 L 52.125 21.875 L 52.000 23.625 L 52.375 24.500 L 53.625 25.625 L 56.000 25.875 L 56.875 26.500 L 57.125 28.250 L 58.250 30.750 L 59.500 32.750 L 61.375 34.875 L 65.125 37.625 L 67.625 38.750 L 69.375 39.000 L 70.000 39.875 L 70.125 42.000 L 71.000 43.125 L 72.250 43.875 L 73.625 43.875 L 74.625 43.375 L 75.625 42.250 L 75.875 39.875 L 76.500 39.000 L 78.250 38.750 L 80.750 37.625 L 83.375 35.875 L 84.875 34.500 L 87.625 30.750 L 88.750 28.250 L 89.000 26.500 L 89.875 25.875 L 92.250 25.625 L 93.750 24.000 L 93.875 22.250 L 93.500 21.375 L 92.250 20.250 L 89.875 20.000 L 89.000 19.375 L 88.750 17.625 L 87.625 15.125 L 85.875 12.500 L 83.750 10.250 L 80.625 8.125 L 78.250 7.125 L 76.500 6.875 L 75.875 6.000 L 75.625 3.625 L 74.000 2.125 Z M 68.875 12.750 L 69.500 12.750 L 70.000 13.375 L 70.125 17.000 L 71.875 18.750 L 74.000 18.750 L 75.625 17.250 L 75.875 16.500 L 75.875 13.375 L 76.375 12.750 L 77.000 12.750 L 80.625 15.125 L 81.875 16.625 L 83.125 18.875 L 83.125 19.500 L 82.500 20.000 L 78.875 20.125 L 77.125 21.875 L 77.125 24.000 L 78.625 25.625 L 79.375 25.875 L 82.500 25.875 L 83.125 26.375 L 82.750 27.750 L 81.125 30.125 L 79.250 31.875 L 77.250 33.000 L 76.375 33.125 L 76.000 32.750 L 75.750 28.875 L 74.000 27.125 L 72.250 27.000 L 71.375 27.375 L 70.500 28.250 L 70.000 29.375 L 70.000 32.500 L 69.500 33.125 L 69.000 33.125 L 66.625 31.875 L 65.250 30.750 L 64.000 29.250 L 62.750 27.000 L 62.750 26.375 L 63.375 25.875 L 67.000 25.750 L 68.750 24.000 L 68.750 21.875 L 67.250 20.250 L 66.500 20.000 L 63.375 20.000 L 62.750 19.500 L 62.750 18.875 L 65.125 15.250 L 66.625 14.000 Z" fill="#000000" fill-rule="evenodd"/>
</svg>
