<svg height="960" viewBox="0 0 960 960" width="960" xmlns="http://www.w3.org/2000/svg"><path d="m479.985 90 3.995434.0575566c72.717361 2.105571 131.019566 61.7153454 131.019566 134.9392194l.015 309.303224 1.533253 1.475655c35.568685 34.86992 56.991156 82.538748 58.3798 133.898477l.071947 5.325868c0 107.695526-87.304474 195-195 195s-195-87.304474-195-195c0-53.39033 21.662617-103.165675 58.466664-139.238981l1.533336-1.476019v-309.285c0-73.22704 58.302205-132.8368713 131.019566-134.9424434zm.015 60c-41.421356 0-75 33.578644-75 75l-.003236 337.735402c-36.177757 24.218133-59.996764 65.459752-59.996764 112.264598 0 74.558441 60.441559 135 135 135s135-60.441559 135-135c0-46.798414-23.812462-88.03513-59.98185-112.254613l-.01815-337.745387c0-41.421356-33.578644-75-75-75zm0 195c16.568542 0 30 13.431458 30 30l.010288 215.124808c34.950397 12.357997 59.989712 45.692472 59.989712 84.875192 0 49.705627-40.294373 90-90 90s-90-40.294373-90-90c0-39.188369 25.046534-72.526806 60.004827-84.880535l-.004827-215.119465c0-16.568542 13.431458-30 30-30zm235.538242 19.210526c-9.133819 0-16.538242-6.968822-16.538242-15.5653 0-2.880511.849277-5.704523 2.453311-8.157734l83.367799-127.502844c5.158417-7.889292 16.135441-10.349112 24.517869-5.494164 2.375955 1.376109 4.375462 3.257986 5.837588 5.494164l83.367799 127.502844c4.787011 7.321262 2.361612 16.908659-5.417281 21.414051-2.606554 1.509669-5.607087 2.308983-8.66765 2.308983h-55.602292v231.578948h55.602292c2.448451 0 4.858482.511561 7.059112 1.489136l1.608538.819847c7.778893 4.505392 10.204292 14.092789 5.417281 21.414051l-83.367799 127.502844c-1.462126 2.236178-3.461633 4.118055-5.837588 5.494164-8.382428 4.854948-19.359452 2.395128-24.517869-5.494164l-83.367799-127.502844c-1.604034-2.453211-2.453311-5.277223-2.453311-8.157734 0-8.596478 7.404423-15.5653 16.538242-15.5653h55.604615v-231.578948z" fill-rule="evenodd"/></svg>